<svg width="800" height="600" xmlns="http://www.w3.org/2000/svg">

 <g>
  <title>Layer 1</title>
  <g>
   <!--! Font Awesome Pro 6.2.1 by @fontawesome - https://fontawesome.com License - https://fontawesome.com/license (Commercial License) Copyright 2022 Fonticons, Inc. -->
   <path d="m224,108c0,-35.3 28.7,-64 64,-64l224,0c35.3,0 64,28.7 64,64l0,384c0,35.3 -28.7,64 -64,64l-224,0c-35.3,0 -64,-28.7 -64,-64l0,-384zm128,384c0,8.8 7.2,16 16,16l64,0c8.8,0 16,-7.2 16,-16s-7.2,-16 -16,-16l-64,0c-8.8,0 -16,7.2 -16,16zm160,-384l-224,0l0,320l224,0l0,-320z"/>
  </g>
  <rect stroke="#000" id="svg_1" height="320.99999" width="224" y="108.00002" x="288" fill="#ffe500"/>
 </g>
</svg>