<svg width="512" height="512" xmlns="http://www.w3.org/2000/svg">
 <!--! Font Awesome Pro 6.2.1 by @fontawesome - https://fontawesome.com License - https://fontawesome.com/license (Commercial License) Copyright 2022 Fonticons, Inc. -->

 <g>
  <title>Layer 1</title>
  <path id="svg_1" d="m0,64c0,-35.3 28.7,-64 64,-64l288,0c35.3,0 64,28.7 64,64l0,64c0,35.3 -28.7,64 -64,64l-288,0c-35.3,0 -64,-28.7 -64,-64l0,-64zm160,288c0,-17.7 14.3,-32 32,-32l0,-16c0,-44.2 35.8,-80 80,-80l144,0c17.7,0 32,-14.3 32,-32l0,-32l0,-90.5c37.3,13.2 64,48.7 64,90.5l0,32c0,53 -43,96 -96,96l-144,0c-8.8,0 -16,7.2 -16,16l0,16c17.7,0 32,14.3 32,32l0,128c0,17.7 -14.3,32 -32,32l-64,0c-17.7,0 -32,-14.3 -32,-32l0,-128z"/>
  <rect rx="27" id="svg_4" height="124" width="315" y="31" x="53" stroke="#000" fill="#ffe500"/>
 </g>
</svg>